{
  "accessors": [
    {
      "bufferView": 2,
      "componentType": 5126,
      "count": 65532,
      "max": [
        9.491805076599121,
        21.852230072021484,
        5.51436710357666
      ],
      "min": [
        -1.4059100151062012,
        9.877609252929688,
        -10.737078666687012
      ],
      "type": "VEC3"
    },
    {
      "bufferView": 2,
      "byteOffset": 786384,
      "componentType": 5126,
      "count": 65532,
      "max": [
        0.9999188780784607,
        0.9999744892120361,
        0.999999463558197
      ],
      "min": [
        -0.9999966025352478,
        -0.9999236464500427,
        -0.9999492168426514
      ],
      "type": "VEC3"
    },
    {
      "bufferView": 1,
      "componentType": 5126,
      "count": 65532,
      "max": [
        0.9994149804115295,
        0.9512439966201782
      ],
      "min": [
        0.00014899999951012433,
        0.01945599913597107
      ],
      "type": "VEC2"
    },
    {
      "bufferView": 0,
      "componentType": 5125,
      "count": 351609,
      "type": "SCALAR"
    },
    {
      "bufferView": 2,
      "byteOffset": 1572768,
      "componentType": 5126,
      "count": 65532,
      "max": [
        9.92790412902832,
        21.852230072021484,
        5.482682228088379
      ],
      "min": [
        -1.396285057067871,
        8.038458824157715,
        -8.327997207641602
      ],
      "type": "VEC3"
    },
    {
      "bufferView": 2,
      "byteOffset": 2359152,
      "componentType": 5126,
      "count": 65532,
      "max": [
        0.9999861121177673,
        0.9999876618385315,
        0.9999557733535767
      ],
      "min": [
        -0.9999977350234985,
        -0.9999802708625793,
        -0.9988212585449219
      ],
      "type": "VEC3"
    },
    {
      "bufferView": 1,
      "byteOffset": 524256,
      "componentType": 5126,
      "count": 65532,
      "max": [
        0.9996280074119568,
        0.9515359997749329
      ],
      "min": [
        0.0,
        0.00685499981045723
      ],
      "type": "VEC2"
    },
    {
      "bufferView": 0,
      "byteOffset": 1406436,
      "componentType": 5125,
      "count": 322146,
      "type": "SCALAR"
    },
    {
      "bufferView": 2,
      "byteOffset": 3145536,
      "componentType": 5126,
      "count": 65533,
      "max": [
        9.788822174072266,
        21.551618576049805,
        4.578370094299316
      ],
      "min": [
        -1.4595990180969238,
        8.040543556213379,
        -11.301918029785156
      ],
      "type": "VEC3"
    },
    {
      "bufferView": 2,
      "byteOffset": 3931932,
      "componentType": 5126,
      "count": 65533,
      "max": [
        1.0,
        1.0,
        1.0
      ],
      "min": [
        -1.0,
        -1.0,
        -1.0
      ],
      "type": "VEC3"
    },
    {
      "bufferView": 1,
      "byteOffset": 1048512,
      "componentType": 5126,
      "count": 65533,
      "max": [
        1.0,
        0.9516400098800659
      ],
      "min": [
        0.0023330000694841146,
        8.199999865610152e-05
      ],
      "type": "VEC2"
    },
    {
      "bufferView": 0,
      "byteOffset": 2695020,
      "componentType": 5125,
      "count": 328518,
      "type": "SCALAR"
    },
    {
      "bufferView": 2,
      "byteOffset": 4718328,
      "componentType": 5126,
      "count": 37040,
      "max": [
        9.923844337463379,
        21.403888702392578,
        3.7924039363861084
      ],
      "min": [
        -1.3922460079193115,
        8.696954727172852,
        -10.114453315734863
      ],
      "type": "VEC3"
    },
    {
      "bufferView": 2,
      "byteOffset": 5162808,
      "componentType": 5126,
      "count": 37040,
      "max": [
        0.9997900724411011,
        0.9997977614402771,
        0.9998196959495544
      ],
      "min": [
        -0.9999958276748657,
        -0.9999220371246338,
        -0.9990538358688354
      ],
      "type": "VEC3"
    },
    {
      "bufferView": 1,
      "byteOffset": 1572776,
      "componentType": 5126,
      "count": 37040,
      "max": [
        0.9982380270957947,
        0.9471340179443359
      ],
      "min": [
        5.199999941396527e-05,
        8.199999865610152e-05
      ],
      "type": "VEC2"
    },
    {
      "bufferView": 0,
      "byteOffset": 4009092,
      "componentType": 5125,
      "count": 138165,
      "type": "SCALAR"
    }
  ],
  "asset": {
    "extras": {
      "author": "Fitzwilliam Museum (https://sketchfab.com/fitzwilliammuseum)",
      "license": "CC-BY-4.0 (http://creativecommons.org/licenses/by/4.0/)",
      "source": "https://sketchfab.com/3d-models/plato-1df8376b55e347fb9bb4cf49375d6e5a",
      "title": "Plato"
    },
    "generator": "Sketchfab-12.68.0",
    "version": "2.0"
  },
  "bufferViews": [
    {
      "buffer": 0,
      "byteLength": 4561752,
      "name": "floatBufferViews",
      "target": 34963
    },
    {
      "buffer": 0,
      "byteLength": 1869096,
      "byteOffset": 4561752,
      "byteStride": 8,
      "name": "floatBufferViews",
      "target": 34962
    },
    {
      "buffer": 0,
      "byteLength": 5607288,
      "byteOffset": 6430848,
      "byteStride": 12,
      "name": "floatBufferViews",
      "target": 34962
    }
  ],
  "buffers": [
    {
      "byteLength": 12038136,
      "uri": "scene.bin"
    }
  ],
  "images": [
    {
      "uri": "textures/plato_baseColor.jpeg"
    }
  ],
  "materials": [
    {
      "doubleSided": true,
      "name": "plato",
      "pbrMetallicRoughness": {
        "baseColorTexture": {
          "index": 0
        },
        "metallicFactor": 0.0,
        "roughnessFactor": 0.6
      }
    }
  ],
  "meshes": [
    {
      "name": "Object_0",
      "primitives": [
        {
          "attributes": {
            "NORMAL": 1,
            "POSITION": 0,
            "TEXCOORD_0": 2
          },
          "indices": 3,
          "material": 0,
          "mode": 4
        }
      ]
    },
    {
      "name": "Object_1",
      "primitives": [
        {
          "attributes": {
            "NORMAL": 5,
            "POSITION": 4,
            "TEXCOORD_0": 6
          },
          "indices": 7,
          "material": 0,
          "mode": 4
        }
      ]
    },
    {
      "name": "Object_2",
      "primitives": [
        {
          "attributes": {
            "NORMAL": 9,
            "POSITION": 8,
            "TEXCOORD_0": 10
          },
          "indices": 11,
          "material": 0,
          "mode": 4
        }
      ]
    },
    {
      "name": "Object_3",
      "primitives": [
        {
          "attributes": {
            "NORMAL": 13,
            "POSITION": 12,
            "TEXCOORD_0": 14
          },
          "indices": 15,
          "material": 0,
          "mode": 4
        }
      ]
    }
  ],
  "nodes": [
    {
      "children": [
        1
      ],
      "matrix": [
        1.0,
        0.0,
        0.0,
        0.0,
        0.0,
        2.220446049250313e-16,
        -1.0,
        0.0,
        0.0,
        1.0,
        2.220446049250313e-16,
        0.0,
        0.0,
        0.0,
        0.0,
        1.0
      ],
      "name": "Sketchfab_model"
    },
    {
      "children": [
        2,
        3,
        4,
        5
      ],
      "name": "plato.obj.cleaner.materialmerger.gles"
    },
    {
      "mesh": 0,
      "name": "Object_2"
    },
    {
      "mesh": 1,
      "name": "Object_3"
    },
    {
      "mesh": 2,
      "name": "Object_4"
    },
    {
      "mesh": 3,
      "name": "Object_5"
    }
  ],
  "samplers": [
    {
      "magFilter": 9729,
      "minFilter": 9987,
      "wrapS": 10497,
      "wrapT": 10497
    }
  ],
  "scene": 0,
  "scenes": [
    {
      "name": "Sketchfab_Scene",
      "nodes": [
        0
      ]
    }
  ],
  "textures": [
    {
      "sampler": 0,
      "source": 0
    }
  ]
}
